<svg width="48" height="48" viewBox="0 0 48 48" fill="none" xmlns="http://www.w3.org/2000/svg">
<rect x="0.5" y="0.5" width="47" height="47" rx="9.5" stroke="url(#paint0_linear_849_5088)"/>
<g clip-path="url(#clip0_849_5088)">
<path d="M34.097 24.766C34.1487 24.3527 34.1874 23.9393 34.1874 23.5002C34.1874 23.061 34.1487 22.6477 34.097 22.2343L36.8224 20.1031C37.0678 19.9093 37.1324 19.5606 36.9774 19.2764L34.3941 14.8072C34.2391 14.5231 33.8903 14.4197 33.6062 14.5231L30.3899 15.8147C29.7182 15.2981 28.9949 14.8718 28.207 14.5489L27.7162 11.126C27.6774 10.816 27.4062 10.5835 27.0832 10.5835H21.9166C21.5937 10.5835 21.3224 10.816 21.2837 11.126L20.7928 14.5489C20.0049 14.8718 19.2816 15.311 18.6099 15.8147L15.3937 14.5231C15.0966 14.4068 14.7607 14.5231 14.6057 14.8072L12.0224 19.2764C11.8545 19.5606 11.932 19.9093 12.1774 20.1031L14.9028 22.2343C14.8512 22.6477 14.8124 23.0739 14.8124 23.5002C14.8124 23.9264 14.8512 24.3527 14.9028 24.766L12.1774 26.8972C11.932 27.091 11.8674 27.4397 12.0224 27.7239L14.6057 32.1931C14.7607 32.4772 15.1095 32.5806 15.3937 32.4772L18.6099 31.1856C19.2816 31.7022 20.0049 32.1285 20.7928 32.4514L21.2837 35.8743C21.3224 36.1843 21.5937 36.4168 21.9166 36.4168H27.0832C27.4062 36.4168 27.6774 36.1843 27.7162 35.8743L28.207 32.4514C28.9949 32.1285 29.7182 31.6893 30.3899 31.1856L33.6062 32.4772C33.9032 32.5935 34.2391 32.4772 34.3941 32.1931L36.9774 27.7239C37.1324 27.4397 37.0678 27.091 36.8224 26.8972L34.097 24.766ZM24.4999 28.021C22.007 28.021 19.9791 25.9931 19.9791 23.5002C19.9791 21.0072 22.007 18.9793 24.4999 18.9793C26.9928 18.9793 29.0208 21.0072 29.0208 23.5002C29.0208 25.9931 26.9928 28.021 24.4999 28.021Z" fill="url(#paint1_linear_849_5088)"/>
</g>
<defs>
<linearGradient id="paint0_linear_849_5088" x1="44.4" y1="2.4" x2="2.4" y2="45.6" gradientUnits="userSpaceOnUse">
<stop stop-color="#B478B6"/>
<stop offset="1" stop-color="#EAB0A0"/>
</linearGradient>
<linearGradient id="paint1_linear_849_5088" x1="24.4971" y1="10.5835" x2="24.4971" y2="36.4168" gradientUnits="userSpaceOnUse">
<stop stop-color="#B478B6"/>
<stop offset="1" stop-color="#EAB0A0"/>
</linearGradient>
<clipPath id="clip0_849_5088">
<rect width="31" height="31" fill="white" transform="translate(9 8)"/>
</clipPath>
</defs>
</svg>
