<svg width="24" height="24" viewBox="0 0 24 24" fill="none" xmlns="http://www.w3.org/2000/svg" className="w-5 h-5 text-[#2A1F9D] dark:text-white">
  <path d="M8 9.5C8 11.2239 8.68482 12.8772 9.90381 14.0962C11.1228 15.3152 12.7761 16 14.5 16C16.2239 16 17.8772 15.3152 19.0962 14.0962C20.3152 12.8772 21 11.2239 21 9.5C21 7.77609 20.3152 6.12279 19.0962 4.90381C17.8772 3.68482 16.2239 3 14.5 3C12.7761 3 11.1228 3.68482 9.90381 4.90381C8.68482 6.12279 8 7.77609 8 9.5Z" stroke="currentColor" strokeWidth="2" strokeLinecap="round" strokeLinejoin="round"/>
  <path d="M3 14.5C3 16.2239 3.68482 17.8772 4.90381 19.0962C6.12279 20.3152 7.77609 21 9.5 21C11.2239 21 12.8772 20.3152 14.0962 19.0962C15.3152 17.8772 16 16.2239 16 14.5C16 12.7761 15.3152 11.1228 14.0962 9.90381C12.8772 8.68482 11.2239 8 9.5 8C7.77609 8 6.12279 8.68482 4.90381 9.90381C3.68482 11.1228 3 12.7761 3 14.5Z" stroke="currentColor" strokeWidth="2" strokeLinecap="round" strokeLinejoin="round"/>
</svg>
