<svg width="24" height="24" viewBox="0 0 24 24" fill="none" xmlns="http://www.w3.org/2000/svg">
<path d="M20.8 13C20.6188 12.6858 20.3557 12.4267 20.0386 12.2506C19.7215 12.0744 19.3625 11.9878 19 12H17C16.4696 12 15.9609 12.2107 15.5858 12.5858C15.2107 12.9609 15 13.4696 15 14C15 14.5304 15.2107 15.0391 15.5858 15.4142C15.9609 15.7893 16.4696 16 17 16H19C19.5304 16 20.0391 16.2107 20.4142 16.5858C20.7893 16.9609 21 17.4696 21 18C21 18.5304 20.7893 19.0391 20.4142 19.4142C20.0391 19.7893 19.5304 20 19 20H17C16.6375 20.0122 16.2785 19.9256 15.9614 19.7494C15.6443 19.5733 15.3812 19.3142 15.2 19M18 11V21M7 5C7 5.53043 6.78929 6.03914 6.41421 6.41421C6.03914 6.78929 5.53043 7 5 7C4.46957 7 3.96086 6.78929 3.58579 6.41421C3.21071 6.03914 3 5.53043 3 5C3 4.46957 3.21071 3.96086 3.58579 3.58579C3.96086 3.21071 4.46957 3 5 3C5.53043 3 6.03914 3.21071 6.41421 3.58579C6.78929 3.96086 7 4.46957 7 5ZM7 5H15M7 5V13C7 13.7956 7.31607 14.5587 7.87868 15.1213C8.44129 15.6839 9.20435 16 10 16H11M15 5C15 5.53043 15.2107 6.03914 15.5858 6.41421C15.9609 6.78929 16.4696 7 17 7C17.5304 7 18.0391 6.78929 18.4142 6.41421C18.7893 6.03914 19 5.53043 19 5C19 4.46957 18.7893 3.96086 18.4142 3.58579C18.0391 3.21071 17.5304 3 17 3C16.4696 3 15.9609 3.21071 15.5858 3.58579C15.2107 3.96086 15 4.46957 15 5Z" stroke="white" stroke-width="2" stroke-linecap="round" stroke-linejoin="round"/>
</svg>
