<svg width="16" height="14" viewBox="0 0 16 14" fill="none" xmlns="http://www.w3.org/2000/svg">
<path d="M15.4441 2.7181L14.1349 1.3657C13.9821 1.2079 13.7748 1.11924 13.5586 1.11924C13.3425 1.11924 13.1352 1.2079 12.9824 1.3657C12.8295 1.5235 12.7437 1.73753 12.7437 1.9607C12.7437 2.18387 12.8295 2.3979 12.9824 2.5557L14.2936 3.906C14.3187 3.93202 14.3387 3.96291 14.3523 3.9969C14.3659 4.03089 14.3729 4.06732 14.3729 4.1041V9.66C14.3729 9.77139 14.33 9.87822 14.2537 9.95699C14.1774 10.0358 14.074 10.08 13.9661 10.08C13.8582 10.08 13.7547 10.0358 13.6785 9.95699C13.6022 9.87822 13.5593 9.77139 13.5593 9.66V7C13.5593 6.48018 13.3593 5.98164 13.0033 5.61407C12.6473 5.2465 12.1645 5.04 11.661 5.04H10.8475V1.96C10.8475 1.44018 10.6475 0.941642 10.2915 0.574071C9.93545 0.2065 9.45261 0 8.94915 0H3.52542C3.02196 0 2.53912 0.2065 2.18312 0.574071C1.82712 0.941642 1.62712 1.44018 1.62712 1.96V12.32H0.813559C0.59779 12.32 0.390858 12.4085 0.238286 12.566C0.085714 12.7236 0 12.9372 0 13.16C0 13.3828 0.085714 13.5964 0.238286 13.754C0.390858 13.9115 0.59779 14 0.813559 14H11.661C11.8768 14 12.0837 13.9115 12.2363 13.754C12.3889 13.5964 12.4746 13.3828 12.4746 13.16C12.4746 12.9372 12.3889 12.7236 12.2363 12.566C12.0837 12.4085 11.8768 12.32 11.661 12.32H10.8475V6.72H11.661C11.7329 6.72 11.8019 6.7495 11.8528 6.80201C11.9036 6.85452 11.9322 6.92574 11.9322 7V9.66C11.9322 10.217 12.1465 10.7511 12.5279 11.1449C12.9093 11.5388 13.4267 11.76 13.9661 11.76C14.5055 11.76 15.0228 11.5388 15.4043 11.1449C15.7857 10.7511 16 10.217 16 9.66V4.1041C16.0008 3.84659 15.952 3.59148 15.8566 3.35357C15.7611 3.11565 15.6209 2.89965 15.4441 2.7181ZM3.25424 12.32V1.96C3.25424 1.88574 3.28281 1.81452 3.33366 1.76201C3.38452 1.7095 3.4535 1.68 3.52542 1.68H8.94915C9.02107 1.68 9.09005 1.7095 9.14091 1.76201C9.19176 1.81452 9.22033 1.88574 9.22033 1.96V12.32H3.25424ZM8.13559 5.88C8.13559 6.10278 8.04987 6.31644 7.8973 6.47397C7.74473 6.6315 7.5378 6.72 7.32203 6.72H5.15254C4.93677 6.72 4.72984 6.6315 4.57727 6.47397C4.42469 6.31644 4.33898 6.10278 4.33898 5.88C4.33898 5.65722 4.42469 5.44356 4.57727 5.28603C4.72984 5.1285 4.93677 5.04 5.15254 5.04H7.32203C7.5378 5.04 7.74473 5.1285 7.8973 5.28603C8.04987 5.44356 8.13559 5.65722 8.13559 5.88Z" fill="#8CC0D7"/>
</svg>
