<svg width="9" height="11" viewBox="0 0 9 11" fill="none" xmlns="http://www.w3.org/2000/svg">
<path d="M1.97884 1.60449C1.97884 1.42216 2.05127 1.24729 2.18021 1.11836C2.30914 0.989425 2.484 0.916992 2.66634 0.916992H6.33301C6.42329 0.916992 6.51269 0.934775 6.5961 0.969325C6.67951 1.00388 6.7553 1.05452 6.81914 1.11836C6.88298 1.1822 6.93362 1.25799 6.96817 1.3414C7.00272 1.42481 7.02051 1.51421 7.02051 1.60449C7.02051 1.69478 7.00272 1.78418 6.96817 1.86759C6.93362 1.951 6.88298 2.02679 6.81914 2.09063C6.7553 2.15447 6.67951 2.20511 6.5961 2.23966C6.51269 2.27421 6.42329 2.29199 6.33301 2.29199H2.66634C2.484 2.29199 2.30914 2.21956 2.18021 2.09063C2.05127 1.9617 1.97884 1.78683 1.97884 1.60449ZM2.00176 3.92366C2.06617 3.84357 2.14771 3.77893 2.24039 3.73451C2.33308 3.69009 2.43454 3.66702 2.53732 3.66699H6.46157C6.56443 3.66695 6.66598 3.68999 6.75875 3.73441C6.85152 3.77883 6.93313 3.84351 6.99759 3.92366L8.01463 5.18935C8.11274 5.3115 8.16619 5.4635 8.16611 5.62018V9.39616C8.16611 9.57849 8.09368 9.75336 7.96475 9.88229C7.83582 10.0112 7.66095 10.0837 7.47861 10.0837H1.52051C1.33817 10.0837 1.1633 10.0112 1.03437 9.88229C0.905441 9.75336 0.833008 9.57849 0.833008 9.39616V5.62018C0.832934 5.4635 0.886377 5.3115 0.984487 5.18935L2.00153 3.92389L2.00176 3.92366Z" stroke="#FEFEFE" stroke-width="0.5" stroke-linejoin="round"/>
</svg>
