<svg width="45" height="45" viewBox="0 0 45 45" fill="none" xmlns="http://www.w3.org/2000/svg">
<path d="M20.95 10.6167V8.55C20.95 8.13891 21.1133 7.74467 21.404 7.45398C21.6947 7.1633 22.0889 7 22.5 7C22.9111 7 23.3053 7.1633 23.596 7.45398C23.8867 7.74467 24.05 8.13891 24.05 8.55V10.6167C24.05 11.0278 23.8867 11.422 23.596 11.7127C23.3053 12.0034 22.9111 12.1667 22.5 12.1667C22.0889 12.1667 21.6947 12.0034 21.404 11.7127C21.1133 11.422 20.95 11.0278 20.95 10.6167ZM31.2833 22.5C31.2833 24.2372 30.7682 25.9353 29.8031 27.3798C28.8379 28.8242 27.4662 29.95 25.8612 30.6147C24.2563 31.2795 22.4903 31.4535 20.7865 31.1146C19.0827 30.7757 17.5176 29.9391 16.2892 28.7108C15.0609 27.4824 14.2243 25.9173 13.8854 24.2135C13.5465 22.5097 13.7205 20.7437 14.3853 19.1388C15.05 17.5338 16.1758 16.1621 17.6202 15.1969C19.0647 14.2318 20.7628 13.7167 22.5 13.7167C24.8287 13.7191 27.0614 14.6452 28.7081 16.2919C30.3548 17.9386 31.2809 20.1712 31.2833 22.5ZM28.1833 22.5C28.1833 21.3759 27.85 20.2771 27.2255 19.3425C26.601 18.4079 25.7134 17.6794 24.6749 17.2493C23.6364 16.8191 22.4937 16.7066 21.3912 16.9259C20.2888 17.1452 19.2761 17.6864 18.4813 18.4813C17.6864 19.2761 17.1452 20.2888 16.9259 21.3912C16.7066 22.4937 16.8191 23.6364 17.2493 24.6749C17.6794 25.7134 18.4079 26.601 19.3425 27.2255C20.2771 27.85 21.3759 28.1833 22.5 28.1833C24.0068 28.1816 25.4514 27.5823 26.5168 26.5168C27.5823 25.4514 28.1816 24.0068 28.1833 22.5ZM12.62 14.8133C12.7642 14.9575 12.9354 15.0718 13.1238 15.1499C13.3122 15.2279 13.5141 15.2681 13.718 15.2681C13.9219 15.2681 14.1238 15.2279 14.3121 15.1499C14.5005 15.0718 14.6717 14.9575 14.8159 14.8133C14.9601 14.6691 15.0744 14.4979 15.1525 14.3096C15.2305 14.1212 15.2706 13.9193 15.2706 13.7154C15.2706 13.5115 15.2305 13.3096 15.1525 13.1212C15.0744 12.9328 14.9601 12.7616 14.8159 12.6175L13.2659 11.0675C12.9747 10.7763 12.5798 10.6127 12.168 10.6127C11.7562 10.6127 11.3612 10.7763 11.07 11.0675C10.7789 11.3586 10.6153 11.7536 10.6153 12.1654C10.6153 12.5772 10.7789 12.9721 11.07 13.2633L12.62 14.8133ZM12.62 30.1841L11.07 31.7341C10.9259 31.8783 10.8115 32.0495 10.7335 32.2379C10.6554 32.4262 10.6153 32.6281 10.6153 32.832C10.6153 33.0359 10.6554 33.2378 10.7335 33.4262C10.8115 33.6146 10.9259 33.7858 11.07 33.93C11.3612 34.2211 11.7562 34.3847 12.168 34.3847C12.3719 34.3847 12.5738 34.3446 12.7621 34.2665C12.9505 34.1885 13.1217 34.0741 13.2659 33.93L14.8159 32.38C15.1071 32.0888 15.2706 31.6938 15.2706 31.282C15.2706 30.8702 15.1071 30.4753 14.8159 30.1841C14.5247 29.8929 14.1298 29.7294 13.718 29.7294C13.3062 29.7294 12.9112 29.8929 12.62 30.1841ZM31.2833 15.2667C31.4869 15.2668 31.6886 15.2269 31.8767 15.1491C32.0649 15.0713 32.2359 14.9572 32.38 14.8133L33.93 13.2633C34.0741 13.1191 34.1885 12.9479 34.2665 12.7596C34.3446 12.5712 34.3847 12.3693 34.3847 12.1654C34.3847 11.9615 34.3446 11.7596 34.2665 11.5712C34.1885 11.3828 34.0741 11.2116 33.93 11.0675C33.7858 10.9233 33.6146 10.8089 33.4262 10.7309C33.2378 10.6528 33.0359 10.6127 32.832 10.6127C32.6281 10.6127 32.4262 10.6528 32.2379 10.7309C32.0495 10.8089 31.8783 10.9233 31.7341 11.0675L30.1841 12.6175C29.9661 12.8343 29.8174 13.111 29.7571 13.4125C29.6967 13.714 29.7274 14.0267 29.8453 14.3107C29.9631 14.5947 30.1628 14.8373 30.4188 15.0075C30.6749 15.1777 30.9758 15.2679 31.2833 15.2667ZM32.38 30.1867C32.0888 29.8955 31.6938 29.7319 31.282 29.7319C30.8702 29.7319 30.4753 29.8955 30.1841 30.1867C29.8929 30.4779 29.7294 30.8728 29.7294 31.2846C29.7294 31.6964 29.8929 32.0914 30.1841 32.3825L31.7341 33.9325C32.0253 34.2237 32.4202 34.3873 32.832 34.3873C33.2438 34.3873 33.6388 34.2237 33.93 33.9325C34.2211 33.6414 34.3847 33.2464 34.3847 32.8346C34.3847 32.4228 34.2211 32.0279 33.93 31.7367L32.38 30.1867ZM12.1667 22.5C12.1667 22.0889 12.0034 21.6947 11.7127 21.404C11.422 21.1133 11.0278 20.95 10.6167 20.95H8.55C8.13891 20.95 7.74467 21.1133 7.45398 21.404C7.1633 21.6947 7 22.0889 7 22.5C7 22.9111 7.1633 23.3053 7.45398 23.596C7.74467 23.8867 8.13891 24.05 8.55 24.05H10.6167C11.0278 24.05 11.422 23.8867 11.7127 23.596C12.0034 23.3053 12.1667 22.9111 12.1667 22.5ZM22.5 32.8333C22.0889 32.8333 21.6947 32.9966 21.404 33.2873C21.1133 33.578 20.95 33.9722 20.95 34.3833V36.45C20.95 36.8611 21.1133 37.2553 21.404 37.546C21.6947 37.8367 22.0889 38 22.5 38C22.9111 38 23.3053 37.8367 23.596 37.546C23.8867 37.2553 24.05 36.8611 24.05 36.45V34.3833C24.05 33.9722 23.8867 33.578 23.596 33.2873C23.3053 32.9966 22.9111 32.8333 22.5 32.8333ZM36.45 20.95H34.3833C33.9722 20.95 33.578 21.1133 33.2873 21.404C32.9966 21.6947 32.8333 22.0889 32.8333 22.5C32.8333 22.9111 32.9966 23.3053 33.2873 23.596C33.578 23.8867 33.9722 24.05 34.3833 24.05H36.45C36.8611 24.05 37.2553 23.8867 37.546 23.596C37.8367 23.3053 38 22.9111 38 22.5C38 22.0889 37.8367 21.6947 37.546 21.404C37.2553 21.1133 36.8611 20.95 36.45 20.95Z" fill="url(#paint0_radial_900_2913)"/>
<rect x="0.5" y="0.5" width="44" height="44" rx="9.5" stroke="url(#paint1_radial_900_2913)"/>
<defs>
<radialGradient id="paint0_radial_900_2913" cx="0" cy="0" r="1" gradientUnits="userSpaceOnUse" gradientTransform="translate(38.7783 6.51752) rotate(180) scale(30.6471 61.4637)">
<stop offset="0.15" stop-color="#FCBD78"/>
<stop offset="0.54" stop-color="#D379AB"/>
<stop offset="0.67" stop-color="#C562BD"/>
<stop offset="1" stop-color="#4659CF"/>
</radialGradient>
<radialGradient id="paint1_radial_900_2913" cx="0" cy="0" r="1" gradientUnits="userSpaceOnUse" gradientTransform="translate(46.1298 -0.700377) rotate(180) scale(44.4877 89.2215)">
<stop offset="0.15" stop-color="#FCBD78"/>
<stop offset="0.54" stop-color="#D379AB"/>
<stop offset="0.67" stop-color="#C562BD"/>
<stop offset="1" stop-color="#4659CF"/>
</radialGradient>
</defs>
</svg>
