<svg width="45" height="45" viewBox="0 0 45 45" fill="none" xmlns="http://www.w3.org/2000/svg">
<path fill-rule="evenodd" clip-rule="evenodd" d="M22.8113 10.8768C20.7122 11.1013 18.7195 11.9151 17.0635 13.2242C15.4074 14.5334 14.1556 16.2844 13.4527 18.275C12.7498 20.2655 12.6246 22.4144 13.0914 24.4731C13.5582 26.5319 14.5981 28.4165 16.0908 29.9092C17.5835 31.4019 19.4681 32.4418 21.5269 32.9086C23.5856 33.3754 25.7345 33.2502 27.725 32.5473C29.7156 31.8444 31.4666 30.5926 32.7758 28.9365C34.0849 27.2805 34.8987 25.2878 35.1232 23.1887C34.3569 24.1623 33.3931 24.9624 32.2951 25.5364C31.1971 26.1103 29.99 26.445 28.7532 26.5185C27.5165 26.5919 26.2782 26.4024 25.12 25.9624C23.9619 25.5225 22.9101 24.842 22.034 23.966C21.158 23.0899 20.4775 22.0381 20.0376 20.88C19.5976 19.7218 19.4081 18.4835 19.4815 17.2468C19.555 16.01 19.8897 14.8029 20.4636 13.7049C21.0376 12.6069 21.8377 11.6431 22.8113 10.8768ZM11 22C11 14.8204 16.8204 9 24 9C24.8671 9 25.3 9.69051 25.375 10.2407C25.4463 10.7704 25.2504 11.444 24.6421 11.8116C23.7387 12.3569 22.9712 13.1005 22.3978 13.9863C21.8244 14.8721 21.4602 15.8768 21.3326 16.9242C21.205 17.9717 21.3175 19.0344 21.6615 20.032C22.0055 21.0295 22.5721 21.9357 23.3182 22.6818C24.0643 23.4279 24.9705 23.9945 25.968 24.3385C26.9656 24.6825 28.0283 24.795 29.0758 24.6674C30.1232 24.5398 31.1279 24.1756 32.0137 23.6022C32.8995 23.0288 33.6431 22.2613 34.1884 21.3579C34.556 20.7496 35.2296 20.5537 35.7593 20.625C36.3095 20.7 37 21.1329 37 22C37 29.1796 31.1796 35 24 35C16.8204 35 11 29.1796 11 22Z" fill="url(#paint0_radial_900_2914)"/>
<rect x="0.5" y="0.5" width="44" height="44" rx="9.5" stroke="url(#paint1_radial_900_2914)"/>
<defs>
<radialGradient id="paint0_radial_900_2914" cx="0" cy="0" r="1" gradientUnits="userSpaceOnUse" gradientTransform="translate(37.6528 8.59534) rotate(180) scale(25.704 51.5502)">
<stop offset="0.15" stop-color="#FCBD78"/>
<stop offset="0.54" stop-color="#D379AB"/>
<stop offset="0.67" stop-color="#C562BD"/>
<stop offset="1" stop-color="#4659CF"/>
</radialGradient>
<radialGradient id="paint1_radial_900_2914" cx="0" cy="0" r="1" gradientUnits="userSpaceOnUse" gradientTransform="translate(46.1298 -0.700377) rotate(180) scale(44.4877 89.2215)">
<stop offset="0.15" stop-color="#FCBD78"/>
<stop offset="0.54" stop-color="#D379AB"/>
<stop offset="0.67" stop-color="#C562BD"/>
<stop offset="1" stop-color="#4659CF"/>
</radialGradient>
</defs>
</svg>
