<svg width="22" height="17" viewBox="0 0 22 17" fill="none" xmlns="http://www.w3.org/2000/svg">
<path d="M5.25 15.2097C5.25 15.6239 5.58579 15.9597 6 15.9597C6.41421 15.9597 6.75 15.6239 6.75 15.2097H5.25ZM6.53033 0.469651C6.23744 0.176758 5.76256 0.176758 5.46967 0.469651L0.696699 5.24262C0.403806 5.53551 0.403806 6.01039 0.696699 6.30328C0.989593 6.59618 1.46447 6.59618 1.75736 6.30328L6 2.06064L10.2426 6.30328C10.5355 6.59618 11.0104 6.59618 11.3033 6.30328C11.5962 6.01039 11.5962 5.53551 11.3033 5.24262L6.53033 0.469651ZM6.75 15.2097L6.75 0.999981H5.25L5.25 15.2097H6.75Z" fill="url(#paint0_linear_748_3165)"/>
<path d="M16.75 1.00049C16.75 0.586275 16.4142 0.250488 16 0.250488C15.5858 0.250488 15.25 0.586275 15.25 1.00049L16.75 1.00049ZM15.4697 16.2668C15.7626 16.5597 16.2374 16.5597 16.5303 16.2668L21.3033 11.4939C21.5962 11.201 21.5962 10.7261 21.3033 10.4332C21.0104 10.1403 20.5355 10.1403 20.2426 10.4332L16 14.6758L11.7574 10.4332C11.4645 10.1403 10.9896 10.1403 10.6967 10.4332C10.4038 10.7261 10.4038 11.201 10.6967 11.4939L15.4697 16.2668ZM15.25 1.00049L15.25 15.7365L16.75 15.7365L16.75 1.00049L15.25 1.00049Z" fill="url(#paint1_linear_748_3165)"/>
<defs>
<linearGradient id="paint0_linear_748_3165" x1="6.0625" y1="1.15964" x2="8.03078" y2="1.31749" gradientUnits="userSpaceOnUse">
<stop stop-color="#81198E"/>
<stop offset="1" stop-color="#EB8863"/>
</linearGradient>
<linearGradient id="paint1_linear_748_3165" x1="15.9375" y1="15.5709" x2="13.9683" y2="15.4187" gradientUnits="userSpaceOnUse">
<stop stop-color="#81198E"/>
<stop offset="1" stop-color="#EB8863"/>
</linearGradient>
</defs>
</svg>
