<svg width="15" height="11" viewBox="0 0 15 11" fill="none" xmlns="http://www.w3.org/2000/svg">
<path d="M4.86022 0C4.35214 0 2.82035 0.615662 2.54554 0.738701C2.27072 0.861739 1.96569 1.24583 1.61957 1.87973C1.27298 2.51364 0.994861 3.25468 0.542974 4.34472C0.0915593 5.43476 -0.0137393 7.53624 0.00137078 8.17764C0.0164809 8.81903 0.0906149 9.32007 0.754043 9.69948C1.417 10.0784 2.00346 10.4751 2.62061 10.7137C3.23824 10.9523 3.65943 11.124 3.94558 10.8854C4.23173 10.6468 4.42013 10.2291 4.42013 10.2291C4.42013 10.2291 4.69117 9.8562 4.17932 9.63258C3.66746 9.40849 3.41153 9.25177 3.43373 9.02066C3.45639 8.78956 3.4937 8.66277 3.62166 8.69271C3.74962 8.72266 4.05135 9.25926 5.21058 9.50533C6.36981 9.75141 7.49976 9.71445 7.49976 9.71445C7.49976 9.71445 8.63019 9.75188 9.78942 9.50533C10.9486 9.25926 11.2499 8.72266 11.3779 8.69271C11.5058 8.66277 11.5431 8.78956 11.5658 9.0202C11.5885 9.25177 11.3325 9.40849 10.8207 9.63258C10.3088 9.8562 10.5799 10.2291 10.5799 10.2291C10.5799 10.2291 10.7683 10.6464 11.0544 10.8854C11.3401 11.124 11.7618 10.9523 12.3789 10.7137C12.9961 10.4751 13.583 10.0789 14.246 9.69948C14.9094 9.32007 14.9835 8.81903 14.9986 8.17764C15.0137 7.53671 14.9084 5.43476 14.4566 4.34472C14.0051 3.25468 13.7265 2.51364 13.38 1.87973C13.0343 1.24583 12.7288 0.86174 12.4545 0.738233C12.1796 0.615662 10.6474 0 10.1393 0C9.63124 0 9.48108 0.350871 9.48108 0.350871L9.30401 0.738701C9.30401 0.738701 8.11409 0.514611 7.50779 0.514143C6.9015 0.514143 5.69599 0.738701 5.69599 0.738701L5.51892 0.350403C5.51892 0.350403 5.36877 0 4.86022 0ZM4.91546 4.65395H4.93435C5.67522 4.65395 6.27537 5.29628 6.27537 6.08832C6.27537 6.88082 5.67522 7.52268 4.93435 7.52268C4.19348 7.52268 3.59333 6.88082 3.59333 6.08832C3.59286 5.30377 4.18215 4.66471 4.91546 4.65395ZM10.0656 4.65395H10.0845C10.8179 4.66471 11.4067 5.30424 11.4067 6.08832C11.4067 6.88082 10.8065 7.52268 10.0656 7.52268C9.32431 7.52268 8.72463 6.88082 8.72463 6.08832C8.72463 5.29628 9.32431 4.65395 10.0656 4.65395Z" fill="white"/>
</svg>
