<svg width="8" height="15" viewBox="0 0 8 15" fill="none" xmlns="http://www.w3.org/2000/svg">
<path d="M7.78812 0.108419V2.48842H6.3725C6.18486 2.46444 5.99425 2.4811 5.81362 2.53729C5.63299 2.59347 5.46656 2.68786 5.32562 2.81404L5.32687 2.81279C5.12428 3.097 5.02865 3.44366 5.05687 3.79154V3.78654V5.49029H7.7L7.35 8.15904H5.06062V15.0003H2.3V8.15842H0V5.49029H2.3V3.52467C2.2701 3.04992 2.33799 2.57408 2.49947 2.12664C2.66094 1.67919 2.91257 1.26966 3.23875 0.923419L3.23688 0.925294C3.5698 0.609829 3.96334 0.365284 4.39362 0.206493C4.8239 0.0477024 5.28196 -0.0220238 5.74 0.0015442H5.73187C6.4433 -0.0101911 7.15466 0.0284471 7.86062 0.117169L7.7875 0.109669L7.78812 0.108419Z" fill="white"/>
</svg>
