<svg width="11" height="10" viewBox="0 0 11 10" fill="none" xmlns="http://www.w3.org/2000/svg">
<path d="M1.776 2.608C1.416 2.608 1.12 2.504 0.888 2.296C0.664 2.08 0.552 1.816 0.552 1.504C0.552 1.184 0.664 0.92 0.888 0.711999C1.12 0.495999 1.416 0.387999 1.776 0.387999C2.128 0.387999 2.416 0.495999 2.64 0.711999C2.872 0.92 2.988 1.184 2.988 1.504C2.988 1.816 2.872 2.08 2.64 2.296C2.416 2.504 2.128 2.608 1.776 2.608ZM2.796 3.304V10H0.744V3.304H2.796ZM8.36306 3.232C9.14706 3.232 9.77106 3.488 10.2351 4C10.7071 4.504 10.9431 5.2 10.9431 6.088V10H8.90306V6.364C8.90306 5.916 8.78706 5.568 8.55506 5.32C8.32306 5.072 8.01106 4.948 7.61906 4.948C7.22706 4.948 6.91506 5.072 6.68306 5.32C6.45106 5.568 6.33506 5.916 6.33506 6.364V10H4.28306V3.304H6.33506V4.192C6.54306 3.896 6.82306 3.664 7.17506 3.496C7.52706 3.32 7.92306 3.232 8.36306 3.232Z" fill="white"/>
</svg>
