<svg width="16" height="16" viewBox="0 0 16 16" fill="none" xmlns="http://www.w3.org/2000/svg">
<path d="M8 5.6C7.36348 5.6 6.75303 5.85286 6.30294 6.30294C5.85286 6.75303 5.6 7.36348 5.6 8C5.6 8.63652 5.85286 9.24697 6.30294 9.69706C6.75303 10.1471 7.36348 10.4 8 10.4C8.63652 10.4 9.24697 10.1471 9.69706 9.69706C10.1471 9.24697 10.4 8.63652 10.4 8C10.4 7.36348 10.1471 6.75303 9.69706 6.30294C9.24697 5.85286 8.63652 5.6 8 5.6ZM8 4C9.06087 4 10.0783 4.42143 10.8284 5.17157C11.5786 5.92172 12 6.93913 12 8C12 9.06087 11.5786 10.0783 10.8284 10.8284C10.0783 11.5786 9.06087 12 8 12C6.93913 12 5.92172 11.5786 5.17157 10.8284C4.42143 10.0783 4 9.06087 4 8C4 6.93913 4.42143 5.92172 5.17157 5.17157C5.92172 4.42143 6.93913 4 8 4ZM13.2 3.8C13.2 4.06522 13.0946 4.31957 12.9071 4.50711C12.7196 4.69464 12.4652 4.8 12.2 4.8C11.9348 4.8 11.6804 4.69464 11.4929 4.50711C11.3054 4.31957 11.2 4.06522 11.2 3.8C11.2 3.53478 11.3054 3.28043 11.4929 3.09289C11.6804 2.90536 11.9348 2.8 12.2 2.8C12.4652 2.8 12.7196 2.90536 12.9071 3.09289C13.0946 3.28043 13.2 3.53478 13.2 3.8ZM8 1.6C6.0208 1.6 5.6976 1.6056 4.7768 1.6464C4.1496 1.676 3.7288 1.76 3.3384 1.912C3.01169 2.03195 2.71633 2.22421 2.4744 2.4744C2.22401 2.71632 2.03148 3.01167 1.9112 3.3384C1.7592 3.7304 1.6752 4.1504 1.6464 4.7768C1.6048 5.66 1.5992 5.9688 1.5992 8C1.5992 9.98 1.6048 10.3024 1.6456 11.2232C1.6752 11.8496 1.7592 12.2712 1.9104 12.6608C2.0464 13.0088 2.2064 13.2592 2.472 13.5248C2.7416 13.7936 2.992 13.9544 3.336 14.0872C3.7312 14.24 4.152 14.3248 4.776 14.3536C5.6592 14.3952 5.968 14.4 7.9992 14.4C9.9792 14.4 10.3016 14.3944 11.2224 14.3536C11.848 14.324 12.2688 14.24 12.66 14.0888C12.9864 13.9683 13.2816 13.7761 13.524 13.5264C13.7936 13.2576 13.9544 13.0072 14.0872 12.6624C14.2392 12.2688 14.324 11.848 14.3528 11.2224C14.3944 10.34 14.3992 10.0304 14.3992 8C14.3992 6.0208 14.3936 5.6976 14.3528 4.7768C14.3232 4.1512 14.2384 3.7288 14.0872 3.3384C13.9666 3.01201 13.7744 2.71679 13.5248 2.4744C13.283 2.22388 12.9876 2.03133 12.6608 1.9112C12.2688 1.7592 11.848 1.6752 11.2224 1.6464C10.34 1.6048 10.032 1.6 8 1.6ZM8 0C10.1736 0 10.4448 0.00799995 11.2984 0.048C12.1496 0.088 12.7304 0.2216 13.24 0.42C13.768 0.6232 14.2128 0.8984 14.6576 1.3424C15.0644 1.74232 15.3792 2.22607 15.58 2.76C15.7776 3.2696 15.912 3.8504 15.952 4.7024C15.9896 5.5552 16 5.8264 16 8C16 10.1736 15.992 10.4448 15.952 11.2976C15.912 12.1496 15.7776 12.7296 15.58 13.24C15.3797 13.7742 15.0649 14.2581 14.6576 14.6576C14.2576 15.0643 13.7738 15.379 13.24 15.58C12.7304 15.7776 12.1496 15.912 11.2984 15.952C10.4448 15.9896 10.1736 16 8 16C5.8264 16 5.5552 15.992 4.7016 15.952C3.8504 15.912 3.2704 15.7776 2.76 15.58C2.22586 15.3796 1.74202 15.0648 1.3424 14.6576C0.935545 14.2577 0.620768 13.774 0.42 13.24C0.2216 12.7304 0.0880001 12.1496 0.0480001 11.2976C0.00960014 10.4448 0 10.1736 0 8C0 5.8264 0.00800014 5.5552 0.0480001 4.7024C0.0880001 3.8496 0.2216 3.2704 0.42 2.76C0.620189 2.22574 0.935043 1.74186 1.3424 1.3424C1.74214 0.935385 2.22594 0.620583 2.76 0.42C3.2696 0.2216 3.8496 0.088 4.7016 0.048C5.5552 0.0104 5.8264 0 8 0Z" fill="white"/>
</svg>
