<svg width="16" height="13" viewBox="0 0 16 13" fill="none" xmlns="http://www.w3.org/2000/svg">
<path d="M15.9976 1.52941C15.4088 1.79706 14.7741 1.97294 14.1165 2.05706C14.7894 1.65176 15.3094 1.00941 15.5541 0.237059C14.9194 0.619412 14.2159 0.887059 13.4741 1.04C12.87 0.382353 12.0212 0 11.0576 0C9.26059 0 7.79235 1.46824 7.79235 3.28059C7.79235 3.54059 7.82294 3.79294 7.87647 4.03C5.15412 3.89235 2.73 2.58471 1.11647 0.604118C0.833529 1.08588 0.672941 1.65176 0.672941 2.24824C0.672941 3.38765 1.24647 4.39706 2.13353 4.97059C1.59059 4.97059 1.08588 4.81765 0.642353 4.58824V4.61118C0.642353 6.20176 1.77412 7.53235 3.27294 7.83059C2.79173 7.96228 2.28654 7.9806 1.79706 7.88412C2.00476 8.53601 2.41153 9.10643 2.96019 9.51518C3.50885 9.92393 4.17181 10.1505 4.85588 10.1629C3.69631 11.0809 2.25894 11.5771 0.78 11.57C0.52 11.57 0.26 11.5547 0 11.5241C1.45294 12.4571 3.18118 13 5.03176 13C11.0576 13 14.3688 7.99882 14.3688 3.66294C14.3688 3.51765 14.3688 3.38 14.3612 3.23471C15.0035 2.77588 15.5541 2.19471 15.9976 1.52941Z" fill="white"/>
</svg>
