<svg width="64" height="64" viewBox="0 0 64 64" fill="none" xmlns="http://www.w3.org/2000/svg">
<path d="M29.1721 31.9996L12.5841 15.4156C12.3981 15.2296 12.2506 15.0089 12.15 14.7659C12.0494 14.523 11.9976 14.2626 11.9976 13.9996C11.9976 13.7366 12.0494 13.4762 12.15 13.2333C12.2506 12.9903 12.3981 12.7695 12.5841 12.5836C12.77 12.3976 12.9908 12.2501 13.2338 12.1495C13.4767 12.0489 13.7371 11.9971 14.0001 11.9971C14.2631 11.9971 14.5235 12.0489 14.7664 12.1495C15.0094 12.2501 15.2301 12.3976 15.4161 12.5836L32.0001 29.1716L48.5841 12.5836C48.9596 12.208 49.469 11.9971 50.0001 11.9971C50.5312 11.9971 51.0405 12.208 51.4161 12.5836C51.7916 12.9591 52.0026 13.4685 52.0026 13.9996C52.0026 14.5307 51.7916 15.0401 51.4161 15.4156L34.8281 31.9996L51.4161 48.5836C51.7916 48.9591 52.0026 49.4685 52.0026 49.9996C52.0026 50.5307 51.7916 51.0401 51.4161 51.4156C51.0405 51.7911 50.5312 52.0021 50.0001 52.0021C49.469 52.0021 48.9596 51.7911 48.5841 51.4156L32.0001 34.8276L15.4161 51.4156C15.0405 51.7911 14.5312 52.0021 14.0001 52.0021C13.469 52.0021 12.9596 51.7911 12.5841 51.4156C12.2085 51.0401 11.9976 50.5307 11.9976 49.9996C11.9976 49.4685 12.2085 48.9591 12.5841 48.5836L29.1721 31.9996Z" fill="url(#paint0_linear_3222_4951)"/>
<defs>
<linearGradient id="paint0_linear_3222_4951" x1="51.5531" y1="14.4974" x2="12.2652" y2="48.9734" gradientUnits="userSpaceOnUse">
<stop stop-color="#81198E"/>
<stop offset="1" stop-color="#EB8863"/>
</linearGradient>
</defs>
</svg>
